# xmcd
#
# Track frame offsets:
#	150
#	23711
#	60910
#	81197
#	111765
#	144626
#	175456
#	214043
#	258549
#	289017
#	312968
#
# Disc length: 4618 seconds
# Revision: 0
# Processed by: cddbd v1.5.2PL0 Copyright (c) Steve Scherf et al.
# Submitted via: dBpowerAMP V12.0
#
DISCID=9a12080b
DTITLE=Various Artist - Journey into Paradise: The Larry Levan Story
DYEAR=2006
DGENRE=Soul
TTITLE0=Change - Paradise
TTITLE1=Phreek - Weekend (Extended Version)
TTITLE2=Chaka Khan - Clouds
TTITLE3=Patrice Rushen - Haven't You Heard
TTITLE4=Positive Force - We Got the Funk (12" U.S. Re-Edit Version)
TTITLE5=Janice McClain - Smack Dab in the Middle (Mixed by Larry Levan)
TTITLE6=Dee Dee Bridgewater - Bad for Me (12" Long Version) (Mixed by Larry Levan)
TTITLE7=Taana Gardner - Heartbeat (Club Version) (Mixed by Larry Levan)
TTITLE8=David Joseph - You Can't Hide (Your Love from Me) (Mixed by Larry Levan
TTITLE9=Man Friday - Love Honey, Love Heartache (12" Vocal Version) (Mixed by Larry Levan)
TTITLE10=Peech Boys - Don't Make Me Wait (12" Extended Version) (Mixed by Larry Levan)
EXTD=
EXTT0=
EXTT1=
EXTT2=
EXTT3=
EXTT4=
EXTT5=
EXTT6=
EXTT7=
EXTT8=
EXTT9=
EXTT10=
PLAYORDER=
